<?xml version="1.0" encoding="UTF-8" standalone="no"?>
<!-- Created with Inkscape (http://www.inkscape.org/) -->

<svg
   xmlns:dc="http://purl.org/dc/elements/1.1/"
   xmlns:cc="http://creativecommons.org/ns#"
   xmlns:rdf="http://www.w3.org/1999/02/22-rdf-syntax-ns#"
   xmlns:svg="http://www.w3.org/2000/svg"
   xmlns="http://www.w3.org/2000/svg"
   xmlns:sodipodi="http://sodipodi.sourceforge.net/DTD/sodipodi-0.dtd"
   xmlns:inkscape="http://www.inkscape.org/namespaces/inkscape"
   width="32"
   height="32"
   viewBox="0 0 32 32.000001"
   id="svg2"
   version="1.1"
   inkscape:version="0.91 r13725"
   sodipodi:docname="ExtensionIcon.svg">
  <defs
     id="defs4" />
  <sodipodi:namedview
     id="base"
     pagecolor="#ffffff"
     bordercolor="#666666"
     borderopacity="1.0"
     inkscape:pageopacity="0.0"
     inkscape:pageshadow="2"
     inkscape:zoom="8"
     inkscape:cx="8.75"
     inkscape:cy="19.191406"
     inkscape:document-units="px"
     inkscape:current-layer="layer1"
     showgrid="false"
     units="px"
     inkscape:window-width="2560"
     inkscape:window-height="1391"
     inkscape:window-x="0"
     inkscape:window-y="1"
     inkscape:window-maximized="1" />
  <metadata
     id="metadata7">
    <rdf:RDF>
      <cc:Work
         rdf:about="">
        <dc:format>image/svg+xml</dc:format>
        <dc:type
           rdf:resource="http://purl.org/dc/dcmitype/StillImage" />
        <dc:title />
      </cc:Work>
    </rdf:RDF>
  </metadata>
  <g
     inkscape:label="Layer 1"
     inkscape:groupmode="layer"
     id="layer1"
     transform="translate(0,-1020.3622)">
    <rect
       style="fill:#ea148c;fill-opacity:1"
       id="rect4135"
       width="32.25"
       height="32"
       x="0"
       y="1020.3622" />
    <g
       style="font-style:normal;font-variant:normal;font-weight:normal;font-stretch:normal;font-size:40px;line-height:125%;font-family:Stencil;-inkscape-font-specification:'Stencil, Normal';text-align:start;letter-spacing:0px;word-spacing:0px;writing-mode:lr-tb;text-anchor:start;fill:#ffffff;fill-opacity:1;stroke:none;stroke-width:1px;stroke-linecap:butt;stroke-linejoin:miter;stroke-opacity:1"
       id="text4138"
       transform="matrix(0.70468729,0,0,0.70468729,14.306055,322.81069)">
      <path
         d="m 12.09375,1016.1836 -2.4330357,0 q -0.5803572,0 -1.0044643,-0.4241 -0.4241071,-0.4241 -0.4241071,-1.0045 l 0,-2.8571 q 0,-0.5804 0.4241071,-1.0045 0.4241071,-0.4241 1.0044643,-0.4241 l 2.4330357,0 q -0.714286,-2.4107 -2.5223214,-4.1964 -1.7857143,-1.808 -4.1964286,-2.5223 l 0,2.433 q 0,0.5804 -0.4241071,1.0045 -0.4241072,0.4241 -1.0044643,0.4241 l -2.8571429,0 q -0.58035713,0 -1.00446427,-0.4241 -0.42410714,-0.4241 -0.42410714,-1.0045 l 0,-2.433 q -2.41071429,0.7143 -4.21874999,2.5223 -1.7857143,1.7857 -2.5,4.1964 l 2.4330357,0 q 0.5803571,0 1.0044643,0.4241 0.4241071,0.4241 0.4241071,1.0045 l 0,2.8571 q 0,0.5804 -0.4241071,1.0045 -0.4241072,0.4241 -1.0044643,0.4241 l -2.4330357,0 q 0.7142857,2.4107 2.5,4.2188 1.8080357,1.7857 4.21874999,2.5 l 0,-2.4331 q 0,-0.5803 0.42410714,-1.0044 0.42410714,-0.4241 1.00446427,-0.4241 l 2.8571429,0 q 0.5803571,0 1.0044643,0.4241 Q 5.375,1019.889 5.375,1020.4693 l 0,2.4331 q 2.4107143,-0.7143 4.1964286,-2.5 1.8080354,-1.8081 2.5223214,-4.2188 z m 7.566964,-4.2857 0,2.8571 q 0,0.5804 -0.424107,1.0045 -0.424107,0.4241 -1.004464,0.4241 l -3.191964,0 q -0.825893,3.5938 -3.459822,6.2277 -2.611607,2.6116 -6.205357,3.4375 l 0,3.192 q 0,0.5803 -0.4241071,1.0044 -0.4241072,0.4241 -1.0044643,0.4241 l -2.8571429,0 q -0.58035713,0 -1.00446427,-0.4241 -0.42410714,-0.4241 -0.42410714,-1.0044 l 0,-3.192 q -3.59374999,-0.8259 -6.22767859,-3.4375 -2.6116071,-2.6339 -3.4374997,-6.2277 l -3.191965,0 q -0.580357,0 -1.004464,-0.4241 -0.424107,-0.4241 -0.424107,-1.0045 l 0,-2.8571 q 0,-0.5804 0.424107,-1.0045 0.424107,-0.4241 1.004464,-0.4241 l 3.191965,0 q 0.8258926,-3.5937 3.4374997,-6.2053 2.6339286,-2.634 6.22767859,-3.4599 l 0,-3.19192 q 0,-0.58035 0.42410714,-1.00446 0.42410714,-0.42411 1.00446427,-0.42411 l 2.8571429,0 q 0.5803571,0 1.0044643,0.42411 Q 5.375,997.03183 5.375,997.61218 l 0,3.19192 q 3.59375,0.8259 6.205357,3.4599 2.633929,2.6116 3.459822,6.2053 l 3.191964,0 q 0.580357,0 1.004464,0.4241 0.424107,0.4241 0.424107,1.0045 z"
         style="fill:#ffffff"
         id="path4143"
         inkscape:connector-curvature="0" />
    </g>
  </g>
  <g
     inkscape:groupmode="layer"
     id="layer2"
     inkscape:label="TYPO3 Logo" />
  <g
     inkscape:groupmode="layer"
     id="layer3"
     inkscape:label="Wrench" />
</svg>
